<mxfile host="Electron" modified="2024-06-11T10:48:53.725Z" agent="Mozilla/5.0 (Macintosh; Intel Mac OS X 10_15_7) AppleWebKit/537.36 (KHTML, like Gecko) draw.io/24.0.4 Chrome/120.0.6099.109 Electron/28.1.0 Safari/537.36" etag="tpUIeIx3mhFmTYky-uNU" version="24.0.4" type="device">
  <diagram id="C5RBs43oDa-KdzZeNtuy" name="Page-1">
    <mxGraphModel dx="1561" dy="518" grid="1" gridSize="10" guides="1" tooltips="1" connect="1" arrows="1" fold="1" page="1" pageScale="1" pageWidth="827" pageHeight="1169" math="0" shadow="0">
      <root>
        <mxCell id="WIyWlLk6GJQsqaUBKTNV-0" />
        <mxCell id="WIyWlLk6GJQsqaUBKTNV-1" parent="WIyWlLk6GJQsqaUBKTNV-0" />
        <mxCell id="agXXEuxnET7PWjICIn9Y-2" style="edgeStyle=orthogonalEdgeStyle;rounded=0;orthogonalLoop=1;jettySize=auto;html=1;" parent="WIyWlLk6GJQsqaUBKTNV-1" source="WIyWlLk6GJQsqaUBKTNV-3" target="WIyWlLk6GJQsqaUBKTNV-6" edge="1">
          <mxGeometry relative="1" as="geometry" />
        </mxCell>
        <mxCell id="WIyWlLk6GJQsqaUBKTNV-3" value="Settings File vorhanden?" style="rounded=1;whiteSpace=wrap;html=1;fontSize=12;glass=0;strokeWidth=1;shadow=0;" parent="WIyWlLk6GJQsqaUBKTNV-1" vertex="1">
          <mxGeometry x="160" y="80" width="120" height="40" as="geometry" />
        </mxCell>
        <mxCell id="agXXEuxnET7PWjICIn9Y-4" style="edgeStyle=orthogonalEdgeStyle;rounded=0;orthogonalLoop=1;jettySize=auto;html=1;exitX=0.5;exitY=1;exitDx=0;exitDy=0;entryX=0.5;entryY=0;entryDx=0;entryDy=0;" parent="WIyWlLk6GJQsqaUBKTNV-1" source="WIyWlLk6GJQsqaUBKTNV-6" target="agXXEuxnET7PWjICIn9Y-3" edge="1">
          <mxGeometry relative="1" as="geometry" />
        </mxCell>
        <mxCell id="_T_kQsFNsvTssqX9CRax-20" style="edgeStyle=orthogonalEdgeStyle;rounded=0;orthogonalLoop=1;jettySize=auto;html=1;entryX=0;entryY=0.5;entryDx=0;entryDy=0;" parent="WIyWlLk6GJQsqaUBKTNV-1" source="WIyWlLk6GJQsqaUBKTNV-6" target="_T_kQsFNsvTssqX9CRax-0" edge="1">
          <mxGeometry relative="1" as="geometry" />
        </mxCell>
        <mxCell id="WIyWlLk6GJQsqaUBKTNV-6" value="Nein" style="rhombus;whiteSpace=wrap;html=1;shadow=0;fontFamily=Helvetica;fontSize=12;align=center;strokeWidth=1;spacing=6;spacingTop=-4;" parent="WIyWlLk6GJQsqaUBKTNV-1" vertex="1">
          <mxGeometry x="135" y="170" width="170" height="80" as="geometry" />
        </mxCell>
        <mxCell id="agXXEuxnET7PWjICIn9Y-1" style="edgeStyle=orthogonalEdgeStyle;rounded=0;orthogonalLoop=1;jettySize=auto;html=1;entryX=0;entryY=0.5;entryDx=0;entryDy=0;" parent="WIyWlLk6GJQsqaUBKTNV-1" source="agXXEuxnET7PWjICIn9Y-0" target="WIyWlLk6GJQsqaUBKTNV-3" edge="1">
          <mxGeometry relative="1" as="geometry" />
        </mxCell>
        <mxCell id="agXXEuxnET7PWjICIn9Y-0" value="Start" style="strokeWidth=2;html=1;shape=mxgraph.flowchart.start_1;whiteSpace=wrap;" parent="WIyWlLk6GJQsqaUBKTNV-1" vertex="1">
          <mxGeometry x="30" y="70" width="100" height="60" as="geometry" />
        </mxCell>
        <mxCell id="KuOzcFhr2oJy05dGrwk8-14" style="edgeStyle=orthogonalEdgeStyle;rounded=0;orthogonalLoop=1;jettySize=auto;html=1;entryX=0;entryY=0.5;entryDx=0;entryDy=0;" parent="WIyWlLk6GJQsqaUBKTNV-1" source="agXXEuxnET7PWjICIn9Y-3" target="KuOzcFhr2oJy05dGrwk8-8" edge="1">
          <mxGeometry relative="1" as="geometry" />
        </mxCell>
        <mxCell id="agXXEuxnET7PWjICIn9Y-3" value="Ja" style="rhombus;whiteSpace=wrap;html=1;shadow=0;fontFamily=Helvetica;fontSize=12;align=center;strokeWidth=1;spacing=6;spacingTop=-4;" parent="WIyWlLk6GJQsqaUBKTNV-1" vertex="1">
          <mxGeometry x="135" y="280" width="170" height="80" as="geometry" />
        </mxCell>
        <mxCell id="KuOzcFhr2oJy05dGrwk8-5" style="edgeStyle=orthogonalEdgeStyle;rounded=0;orthogonalLoop=1;jettySize=auto;html=1;entryX=0;entryY=0.5;entryDx=0;entryDy=0;" parent="WIyWlLk6GJQsqaUBKTNV-1" source="agXXEuxnET7PWjICIn9Y-13" target="KuOzcFhr2oJy05dGrwk8-2" edge="1">
          <mxGeometry relative="1" as="geometry" />
        </mxCell>
        <mxCell id="agXXEuxnET7PWjICIn9Y-13" value="" style="html=1;strokeWidth=2;shape=manualInput;whiteSpace=wrap;rounded=1;size=26;arcSize=11;" parent="WIyWlLk6GJQsqaUBKTNV-1" vertex="1">
          <mxGeometry x="804" y="50" width="146" height="60" as="geometry" />
        </mxCell>
        <mxCell id="agXXEuxnET7PWjICIn9Y-14" value="E-Mail Adresse eingeben" style="text;html=1;align=center;verticalAlign=middle;whiteSpace=wrap;rounded=0;" parent="WIyWlLk6GJQsqaUBKTNV-1" vertex="1">
          <mxGeometry x="814" y="74" width="126" height="30" as="geometry" />
        </mxCell>
        <mxCell id="agXXEuxnET7PWjICIn9Y-27" value="End" style="strokeWidth=2;html=1;shape=mxgraph.flowchart.terminator;whiteSpace=wrap;" parent="WIyWlLk6GJQsqaUBKTNV-1" vertex="1">
          <mxGeometry x="1170" y="840" width="100" height="60" as="geometry" />
        </mxCell>
        <mxCell id="agXXEuxnET7PWjICIn9Y-41" value="Tool speichert die Daten ab." style="rounded=1;whiteSpace=wrap;html=1;absoluteArcSize=1;arcSize=14;strokeWidth=2;" parent="WIyWlLk6GJQsqaUBKTNV-1" vertex="1">
          <mxGeometry x="1430" y="47.5" width="130" height="65" as="geometry" />
        </mxCell>
        <mxCell id="_T_kQsFNsvTssqX9CRax-17" style="edgeStyle=orthogonalEdgeStyle;rounded=0;orthogonalLoop=1;jettySize=auto;html=1;entryX=0;entryY=0.5;entryDx=0;entryDy=0;" parent="WIyWlLk6GJQsqaUBKTNV-1" source="KuOzcFhr2oJy05dGrwk8-2" target="_T_kQsFNsvTssqX9CRax-15" edge="1">
          <mxGeometry relative="1" as="geometry" />
        </mxCell>
        <mxCell id="KuOzcFhr2oJy05dGrwk8-2" value="" style="html=1;strokeWidth=2;shape=manualInput;whiteSpace=wrap;rounded=1;size=26;arcSize=11;" parent="WIyWlLk6GJQsqaUBKTNV-1" vertex="1">
          <mxGeometry x="1010" y="50" width="146" height="60" as="geometry" />
        </mxCell>
        <mxCell id="KuOzcFhr2oJy05dGrwk8-3" value="Gmail App Code eingeben" style="text;html=1;align=center;verticalAlign=middle;whiteSpace=wrap;rounded=0;" parent="WIyWlLk6GJQsqaUBKTNV-1" vertex="1">
          <mxGeometry x="1020" y="74" width="126" height="30" as="geometry" />
        </mxCell>
        <mxCell id="KuOzcFhr2oJy05dGrwk8-7" style="edgeStyle=orthogonalEdgeStyle;rounded=0;orthogonalLoop=1;jettySize=auto;html=1;" parent="WIyWlLk6GJQsqaUBKTNV-1" source="KuOzcFhr2oJy05dGrwk8-8" target="KuOzcFhr2oJy05dGrwk8-11" edge="1">
          <mxGeometry relative="1" as="geometry" />
        </mxCell>
        <mxCell id="KuOzcFhr2oJy05dGrwk8-8" value="Menupunkt auswÃ¤hlen" style="rounded=1;whiteSpace=wrap;html=1;fontSize=12;glass=0;strokeWidth=1;shadow=0;" parent="WIyWlLk6GJQsqaUBKTNV-1" vertex="1">
          <mxGeometry x="363" y="300" width="120" height="40" as="geometry" />
        </mxCell>
        <mxCell id="KuOzcFhr2oJy05dGrwk8-9" style="edgeStyle=orthogonalEdgeStyle;rounded=0;orthogonalLoop=1;jettySize=auto;html=1;exitX=0.5;exitY=1;exitDx=0;exitDy=0;entryX=0.5;entryY=0;entryDx=0;entryDy=0;" parent="WIyWlLk6GJQsqaUBKTNV-1" source="KuOzcFhr2oJy05dGrwk8-11" target="KuOzcFhr2oJy05dGrwk8-13" edge="1">
          <mxGeometry relative="1" as="geometry" />
        </mxCell>
        <mxCell id="KuOzcFhr2oJy05dGrwk8-29" style="edgeStyle=orthogonalEdgeStyle;rounded=0;orthogonalLoop=1;jettySize=auto;html=1;entryX=1;entryY=0.5;entryDx=0;entryDy=0;" parent="WIyWlLk6GJQsqaUBKTNV-1" source="KuOzcFhr2oJy05dGrwk8-11" target="KuOzcFhr2oJy05dGrwk8-21" edge="1">
          <mxGeometry relative="1" as="geometry" />
        </mxCell>
        <mxCell id="KuOzcFhr2oJy05dGrwk8-11" value="Einstellungen" style="rhombus;whiteSpace=wrap;html=1;shadow=0;fontFamily=Helvetica;fontSize=12;align=center;strokeWidth=1;spacing=6;spacingTop=-4;" parent="WIyWlLk6GJQsqaUBKTNV-1" vertex="1">
          <mxGeometry x="338" y="390" width="170" height="80" as="geometry" />
        </mxCell>
        <mxCell id="KuOzcFhr2oJy05dGrwk8-17" style="edgeStyle=orthogonalEdgeStyle;rounded=0;orthogonalLoop=1;jettySize=auto;html=1;entryX=0.5;entryY=0;entryDx=0;entryDy=0;" parent="WIyWlLk6GJQsqaUBKTNV-1" source="KuOzcFhr2oJy05dGrwk8-13" target="KuOzcFhr2oJy05dGrwk8-15" edge="1">
          <mxGeometry relative="1" as="geometry" />
        </mxCell>
        <mxCell id="KuOzcFhr2oJy05dGrwk8-57" style="edgeStyle=orthogonalEdgeStyle;rounded=0;orthogonalLoop=1;jettySize=auto;html=1;entryX=0;entryY=0.5;entryDx=0;entryDy=0;" parent="WIyWlLk6GJQsqaUBKTNV-1" source="KuOzcFhr2oJy05dGrwk8-13" target="KuOzcFhr2oJy05dGrwk8-51" edge="1">
          <mxGeometry relative="1" as="geometry" />
        </mxCell>
        <mxCell id="KuOzcFhr2oJy05dGrwk8-13" value="E-Mail Senden" style="rhombus;whiteSpace=wrap;html=1;shadow=0;fontFamily=Helvetica;fontSize=12;align=center;strokeWidth=1;spacing=6;spacingTop=-4;" parent="WIyWlLk6GJQsqaUBKTNV-1" vertex="1">
          <mxGeometry x="338" y="500" width="170" height="80" as="geometry" />
        </mxCell>
        <mxCell id="KuOzcFhr2oJy05dGrwk8-18" style="edgeStyle=orthogonalEdgeStyle;rounded=0;orthogonalLoop=1;jettySize=auto;html=1;entryX=0.5;entryY=0;entryDx=0;entryDy=0;" parent="WIyWlLk6GJQsqaUBKTNV-1" source="KuOzcFhr2oJy05dGrwk8-15" target="KuOzcFhr2oJy05dGrwk8-16" edge="1">
          <mxGeometry relative="1" as="geometry" />
        </mxCell>
        <mxCell id="KuOzcFhr2oJy05dGrwk8-15" value="E-Mail Empfangen" style="rhombus;whiteSpace=wrap;html=1;shadow=0;fontFamily=Helvetica;fontSize=12;align=center;strokeWidth=1;spacing=6;spacingTop=-4;" parent="WIyWlLk6GJQsqaUBKTNV-1" vertex="1">
          <mxGeometry x="338" y="610" width="170" height="80" as="geometry" />
        </mxCell>
        <mxCell id="_T_kQsFNsvTssqX9CRax-23" style="edgeStyle=orthogonalEdgeStyle;rounded=0;orthogonalLoop=1;jettySize=auto;html=1;entryX=0;entryY=0.5;entryDx=0;entryDy=0;" parent="WIyWlLk6GJQsqaUBKTNV-1" source="KuOzcFhr2oJy05dGrwk8-16" target="_T_kQsFNsvTssqX9CRax-22" edge="1">
          <mxGeometry relative="1" as="geometry" />
        </mxCell>
        <mxCell id="_T_kQsFNsvTssqX9CRax-24" style="edgeStyle=orthogonalEdgeStyle;rounded=0;orthogonalLoop=1;jettySize=auto;html=1;exitX=0.5;exitY=1;exitDx=0;exitDy=0;entryX=0.5;entryY=0;entryDx=0;entryDy=0;" parent="WIyWlLk6GJQsqaUBKTNV-1" source="KuOzcFhr2oJy05dGrwk8-16" target="_T_kQsFNsvTssqX9CRax-21" edge="1">
          <mxGeometry relative="1" as="geometry" />
        </mxCell>
        <mxCell id="KuOzcFhr2oJy05dGrwk8-16" value="Logout" style="rhombus;whiteSpace=wrap;html=1;shadow=0;fontFamily=Helvetica;fontSize=12;align=center;strokeWidth=1;spacing=6;spacingTop=-4;" parent="WIyWlLk6GJQsqaUBKTNV-1" vertex="1">
          <mxGeometry x="338" y="720" width="170" height="80" as="geometry" />
        </mxCell>
        <mxCell id="KuOzcFhr2oJy05dGrwk8-20" style="edgeStyle=orthogonalEdgeStyle;rounded=0;orthogonalLoop=1;jettySize=auto;html=1;" parent="WIyWlLk6GJQsqaUBKTNV-1" source="KuOzcFhr2oJy05dGrwk8-21" target="KuOzcFhr2oJy05dGrwk8-23" edge="1">
          <mxGeometry relative="1" as="geometry" />
        </mxCell>
        <mxCell id="KuOzcFhr2oJy05dGrwk8-21" value="Menupunkt auswÃ¤hlen" style="rounded=1;whiteSpace=wrap;html=1;fontSize=12;glass=0;strokeWidth=1;shadow=0;" parent="WIyWlLk6GJQsqaUBKTNV-1" vertex="1">
          <mxGeometry x="-295" y="410" width="120" height="40" as="geometry" />
        </mxCell>
        <mxCell id="KuOzcFhr2oJy05dGrwk8-22" style="edgeStyle=orthogonalEdgeStyle;rounded=0;orthogonalLoop=1;jettySize=auto;html=1;exitX=0.5;exitY=1;exitDx=0;exitDy=0;entryX=0.5;entryY=0;entryDx=0;entryDy=0;" parent="WIyWlLk6GJQsqaUBKTNV-1" source="KuOzcFhr2oJy05dGrwk8-23" target="KuOzcFhr2oJy05dGrwk8-25" edge="1">
          <mxGeometry relative="1" as="geometry" />
        </mxCell>
        <mxCell id="tz2j4-wTW594FyGTN8xT-20" style="edgeStyle=orthogonalEdgeStyle;rounded=0;orthogonalLoop=1;jettySize=auto;html=1;entryX=0;entryY=0.5;entryDx=0;entryDy=0;" parent="WIyWlLk6GJQsqaUBKTNV-1" source="KuOzcFhr2oJy05dGrwk8-23" target="tz2j4-wTW594FyGTN8xT-18" edge="1">
          <mxGeometry relative="1" as="geometry" />
        </mxCell>
        <mxCell id="KuOzcFhr2oJy05dGrwk8-23" value="Sender-E-Mail-Adresse Ã¤ndern" style="rhombus;whiteSpace=wrap;html=1;shadow=0;fontFamily=Helvetica;fontSize=12;align=center;strokeWidth=1;spacing=6;spacingTop=-4;" parent="WIyWlLk6GJQsqaUBKTNV-1" vertex="1">
          <mxGeometry x="-320" y="500" width="170" height="80" as="geometry" />
        </mxCell>
        <mxCell id="KuOzcFhr2oJy05dGrwk8-37" style="edgeStyle=orthogonalEdgeStyle;rounded=0;orthogonalLoop=1;jettySize=auto;html=1;entryX=0.5;entryY=0;entryDx=0;entryDy=0;" parent="WIyWlLk6GJQsqaUBKTNV-1" source="KuOzcFhr2oJy05dGrwk8-25" target="KuOzcFhr2oJy05dGrwk8-36" edge="1">
          <mxGeometry relative="1" as="geometry" />
        </mxCell>
        <mxCell id="KuOzcFhr2oJy05dGrwk8-25" value="Konfigurierte Sender-E-Mail-Adresse anzeigen" style="rhombus;whiteSpace=wrap;html=1;shadow=0;fontFamily=Helvetica;fontSize=12;align=center;strokeWidth=1;spacing=6;spacingTop=-4;" parent="WIyWlLk6GJQsqaUBKTNV-1" vertex="1">
          <mxGeometry x="-320" y="610" width="170" height="80" as="geometry" />
        </mxCell>
        <mxCell id="KuOzcFhr2oJy05dGrwk8-26" style="edgeStyle=orthogonalEdgeStyle;rounded=0;orthogonalLoop=1;jettySize=auto;html=1;entryX=0.5;entryY=0;entryDx=0;entryDy=0;" parent="WIyWlLk6GJQsqaUBKTNV-1" source="KuOzcFhr2oJy05dGrwk8-27" target="KuOzcFhr2oJy05dGrwk8-28" edge="1">
          <mxGeometry relative="1" as="geometry" />
        </mxCell>
        <mxCell id="KuOzcFhr2oJy05dGrwk8-27" value="Konfigurierten Gmail App Code anzeigen" style="rhombus;whiteSpace=wrap;html=1;shadow=0;fontFamily=Helvetica;fontSize=12;align=center;strokeWidth=1;spacing=6;spacingTop=-4;" parent="WIyWlLk6GJQsqaUBKTNV-1" vertex="1">
          <mxGeometry x="-320" y="830" width="170" height="80" as="geometry" />
        </mxCell>
        <mxCell id="tz2j4-wTW594FyGTN8xT-9" style="edgeStyle=orthogonalEdgeStyle;rounded=0;orthogonalLoop=1;jettySize=auto;html=1;entryX=0;entryY=0.5;entryDx=0;entryDy=0;" parent="WIyWlLk6GJQsqaUBKTNV-1" source="KuOzcFhr2oJy05dGrwk8-28" target="tz2j4-wTW594FyGTN8xT-7" edge="1">
          <mxGeometry relative="1" as="geometry" />
        </mxCell>
        <mxCell id="tz2j4-wTW594FyGTN8xT-17" style="edgeStyle=orthogonalEdgeStyle;rounded=0;orthogonalLoop=1;jettySize=auto;html=1;entryX=0.5;entryY=0;entryDx=0;entryDy=0;" parent="WIyWlLk6GJQsqaUBKTNV-1" source="KuOzcFhr2oJy05dGrwk8-28" target="tz2j4-wTW594FyGTN8xT-0" edge="1">
          <mxGeometry relative="1" as="geometry" />
        </mxCell>
        <mxCell id="KuOzcFhr2oJy05dGrwk8-28" value="Passwort Ã¤ndern" style="rhombus;whiteSpace=wrap;html=1;shadow=0;fontFamily=Helvetica;fontSize=12;align=center;strokeWidth=1;spacing=6;spacingTop=-4;" parent="WIyWlLk6GJQsqaUBKTNV-1" vertex="1">
          <mxGeometry x="-320" y="940" width="170" height="80" as="geometry" />
        </mxCell>
        <mxCell id="KuOzcFhr2oJy05dGrwk8-50" style="edgeStyle=orthogonalEdgeStyle;rounded=0;orthogonalLoop=1;jettySize=auto;html=1;entryX=1;entryY=0.5;entryDx=0;entryDy=0;" parent="WIyWlLk6GJQsqaUBKTNV-1" source="KuOzcFhr2oJy05dGrwk8-34" target="KuOzcFhr2oJy05dGrwk8-21" edge="1">
          <mxGeometry relative="1" as="geometry">
            <Array as="points">
              <mxPoint x="290" y="870" />
              <mxPoint x="290" y="430" />
            </Array>
          </mxGeometry>
        </mxCell>
        <mxCell id="KuOzcFhr2oJy05dGrwk8-34" value="Gmail App Code wird angezeigt" style="strokeWidth=2;html=1;shape=mxgraph.flowchart.display;whiteSpace=wrap;" parent="WIyWlLk6GJQsqaUBKTNV-1" vertex="1">
          <mxGeometry x="-40" y="840" width="170" height="60" as="geometry" />
        </mxCell>
        <mxCell id="KuOzcFhr2oJy05dGrwk8-35" style="edgeStyle=orthogonalEdgeStyle;rounded=0;orthogonalLoop=1;jettySize=auto;html=1;entryX=0;entryY=0.5;entryDx=0;entryDy=0;entryPerimeter=0;" parent="WIyWlLk6GJQsqaUBKTNV-1" source="KuOzcFhr2oJy05dGrwk8-27" target="KuOzcFhr2oJy05dGrwk8-34" edge="1">
          <mxGeometry relative="1" as="geometry" />
        </mxCell>
        <mxCell id="KuOzcFhr2oJy05dGrwk8-38" style="edgeStyle=orthogonalEdgeStyle;rounded=0;orthogonalLoop=1;jettySize=auto;html=1;entryX=0.5;entryY=0;entryDx=0;entryDy=0;" parent="WIyWlLk6GJQsqaUBKTNV-1" source="KuOzcFhr2oJy05dGrwk8-36" target="KuOzcFhr2oJy05dGrwk8-27" edge="1">
          <mxGeometry relative="1" as="geometry" />
        </mxCell>
        <mxCell id="tz2j4-wTW594FyGTN8xT-30" style="edgeStyle=orthogonalEdgeStyle;rounded=0;orthogonalLoop=1;jettySize=auto;html=1;entryX=0;entryY=0.5;entryDx=0;entryDy=0;" parent="WIyWlLk6GJQsqaUBKTNV-1" source="KuOzcFhr2oJy05dGrwk8-36" target="tz2j4-wTW594FyGTN8xT-28" edge="1">
          <mxGeometry relative="1" as="geometry" />
        </mxCell>
        <mxCell id="KuOzcFhr2oJy05dGrwk8-36" value="Gmail App Code Ã¤ndern" style="rhombus;whiteSpace=wrap;html=1;shadow=0;fontFamily=Helvetica;fontSize=12;align=center;strokeWidth=1;spacing=6;spacingTop=-4;" parent="WIyWlLk6GJQsqaUBKTNV-1" vertex="1">
          <mxGeometry x="-320" y="720" width="170" height="80" as="geometry" />
        </mxCell>
        <mxCell id="KuOzcFhr2oJy05dGrwk8-48" style="edgeStyle=orthogonalEdgeStyle;rounded=0;orthogonalLoop=1;jettySize=auto;html=1;entryX=1;entryY=0.5;entryDx=0;entryDy=0;" parent="WIyWlLk6GJQsqaUBKTNV-1" source="KuOzcFhr2oJy05dGrwk8-39" target="KuOzcFhr2oJy05dGrwk8-21" edge="1">
          <mxGeometry relative="1" as="geometry">
            <Array as="points">
              <mxPoint x="290" y="650" />
              <mxPoint x="290" y="430" />
            </Array>
          </mxGeometry>
        </mxCell>
        <mxCell id="KuOzcFhr2oJy05dGrwk8-39" value="Sender-E-Mail-Adresse wird angezeigt" style="strokeWidth=2;html=1;shape=mxgraph.flowchart.display;whiteSpace=wrap;" parent="WIyWlLk6GJQsqaUBKTNV-1" vertex="1">
          <mxGeometry x="-40" y="620" width="170" height="60" as="geometry" />
        </mxCell>
        <mxCell id="KuOzcFhr2oJy05dGrwk8-40" style="edgeStyle=orthogonalEdgeStyle;rounded=0;orthogonalLoop=1;jettySize=auto;html=1;entryX=0;entryY=0.5;entryDx=0;entryDy=0;entryPerimeter=0;" parent="WIyWlLk6GJQsqaUBKTNV-1" source="KuOzcFhr2oJy05dGrwk8-25" target="KuOzcFhr2oJy05dGrwk8-39" edge="1">
          <mxGeometry relative="1" as="geometry" />
        </mxCell>
        <mxCell id="KuOzcFhr2oJy05dGrwk8-47" style="edgeStyle=orthogonalEdgeStyle;rounded=0;orthogonalLoop=1;jettySize=auto;html=1;entryX=1;entryY=0.5;entryDx=0;entryDy=0;" parent="WIyWlLk6GJQsqaUBKTNV-1" source="KuOzcFhr2oJy05dGrwk8-41" target="KuOzcFhr2oJy05dGrwk8-21" edge="1">
          <mxGeometry relative="1" as="geometry">
            <Array as="points">
              <mxPoint x="290" y="540" />
              <mxPoint x="290" y="430" />
            </Array>
          </mxGeometry>
        </mxCell>
        <mxCell id="KuOzcFhr2oJy05dGrwk8-41" value="" style="html=1;strokeWidth=2;shape=manualInput;whiteSpace=wrap;rounded=1;size=26;arcSize=11;" parent="WIyWlLk6GJQsqaUBKTNV-1" vertex="1">
          <mxGeometry x="72" y="510" width="146" height="60" as="geometry" />
        </mxCell>
        <mxCell id="KuOzcFhr2oJy05dGrwk8-42" value="Neue Sender-E-Mail-Adresse eingeben" style="text;html=1;align=center;verticalAlign=middle;whiteSpace=wrap;rounded=0;" parent="WIyWlLk6GJQsqaUBKTNV-1" vertex="1">
          <mxGeometry x="82" y="534" width="126" height="30" as="geometry" />
        </mxCell>
        <mxCell id="KuOzcFhr2oJy05dGrwk8-58" style="edgeStyle=orthogonalEdgeStyle;rounded=0;orthogonalLoop=1;jettySize=auto;html=1;entryX=0;entryY=0.5;entryDx=0;entryDy=0;" parent="WIyWlLk6GJQsqaUBKTNV-1" source="KuOzcFhr2oJy05dGrwk8-51" target="KuOzcFhr2oJy05dGrwk8-53" edge="1">
          <mxGeometry relative="1" as="geometry" />
        </mxCell>
        <mxCell id="KuOzcFhr2oJy05dGrwk8-51" value="" style="html=1;strokeWidth=2;shape=manualInput;whiteSpace=wrap;rounded=1;size=26;arcSize=11;" parent="WIyWlLk6GJQsqaUBKTNV-1" vertex="1">
          <mxGeometry x="570" y="510" width="146" height="60" as="geometry" />
        </mxCell>
        <mxCell id="KuOzcFhr2oJy05dGrwk8-52" value="EmpfÃ¤nger-E-Mail-Adresse eingeben" style="text;html=1;align=center;verticalAlign=middle;whiteSpace=wrap;rounded=0;" parent="WIyWlLk6GJQsqaUBKTNV-1" vertex="1">
          <mxGeometry x="580" y="534" width="126" height="30" as="geometry" />
        </mxCell>
        <mxCell id="KuOzcFhr2oJy05dGrwk8-59" style="edgeStyle=orthogonalEdgeStyle;rounded=0;orthogonalLoop=1;jettySize=auto;html=1;entryX=0;entryY=0.5;entryDx=0;entryDy=0;" parent="WIyWlLk6GJQsqaUBKTNV-1" source="KuOzcFhr2oJy05dGrwk8-53" target="KuOzcFhr2oJy05dGrwk8-55" edge="1">
          <mxGeometry relative="1" as="geometry" />
        </mxCell>
        <mxCell id="KuOzcFhr2oJy05dGrwk8-53" value="" style="html=1;strokeWidth=2;shape=manualInput;whiteSpace=wrap;rounded=1;size=26;arcSize=11;" parent="WIyWlLk6GJQsqaUBKTNV-1" vertex="1">
          <mxGeometry x="770" y="510" width="146" height="60" as="geometry" />
        </mxCell>
        <mxCell id="KuOzcFhr2oJy05dGrwk8-54" value="Betreff eingeben" style="text;html=1;align=center;verticalAlign=middle;whiteSpace=wrap;rounded=0;" parent="WIyWlLk6GJQsqaUBKTNV-1" vertex="1">
          <mxGeometry x="780" y="534" width="126" height="30" as="geometry" />
        </mxCell>
        <mxCell id="KuOzcFhr2oJy05dGrwk8-61" style="edgeStyle=orthogonalEdgeStyle;rounded=0;orthogonalLoop=1;jettySize=auto;html=1;entryX=0;entryY=0.5;entryDx=0;entryDy=0;" parent="WIyWlLk6GJQsqaUBKTNV-1" source="KuOzcFhr2oJy05dGrwk8-55" target="KuOzcFhr2oJy05dGrwk8-60" edge="1">
          <mxGeometry relative="1" as="geometry" />
        </mxCell>
        <mxCell id="KuOzcFhr2oJy05dGrwk8-55" value="" style="html=1;strokeWidth=2;shape=manualInput;whiteSpace=wrap;rounded=1;size=26;arcSize=11;" parent="WIyWlLk6GJQsqaUBKTNV-1" vertex="1">
          <mxGeometry x="970" y="510" width="146" height="60" as="geometry" />
        </mxCell>
        <mxCell id="KuOzcFhr2oJy05dGrwk8-56" value="Nachricht eingeben" style="text;html=1;align=center;verticalAlign=middle;whiteSpace=wrap;rounded=0;" parent="WIyWlLk6GJQsqaUBKTNV-1" vertex="1">
          <mxGeometry x="980" y="534" width="126" height="30" as="geometry" />
        </mxCell>
        <mxCell id="KuOzcFhr2oJy05dGrwk8-60" value="E-Mail wird versendet" style="rounded=1;whiteSpace=wrap;html=1;absoluteArcSize=1;arcSize=14;strokeWidth=2;" parent="WIyWlLk6GJQsqaUBKTNV-1" vertex="1">
          <mxGeometry x="1166" y="515.5" width="150" height="49" as="geometry" />
        </mxCell>
        <mxCell id="KuOzcFhr2oJy05dGrwk8-62" style="edgeStyle=orthogonalEdgeStyle;rounded=0;orthogonalLoop=1;jettySize=auto;html=1;entryX=0.5;entryY=0;entryDx=0;entryDy=0;entryPerimeter=0;" parent="WIyWlLk6GJQsqaUBKTNV-1" source="KuOzcFhr2oJy05dGrwk8-60" target="agXXEuxnET7PWjICIn9Y-0" edge="1">
          <mxGeometry relative="1" as="geometry">
            <Array as="points">
              <mxPoint x="1610" y="540" />
              <mxPoint x="1610" y="10" />
              <mxPoint x="80" y="10" />
            </Array>
          </mxGeometry>
        </mxCell>
        <mxCell id="KuOzcFhr2oJy05dGrwk8-64" style="edgeStyle=orthogonalEdgeStyle;rounded=0;orthogonalLoop=1;jettySize=auto;html=1;entryX=0.5;entryY=0;entryDx=0;entryDy=0;entryPerimeter=0;" parent="WIyWlLk6GJQsqaUBKTNV-1" source="agXXEuxnET7PWjICIn9Y-41" target="agXXEuxnET7PWjICIn9Y-0" edge="1">
          <mxGeometry relative="1" as="geometry">
            <Array as="points">
              <mxPoint x="1495" y="10" />
              <mxPoint x="80" y="10" />
            </Array>
          </mxGeometry>
        </mxCell>
        <mxCell id="KuOzcFhr2oJy05dGrwk8-65" value="while True" style="strokeWidth=2;html=1;shape=mxgraph.flowchart.decision;whiteSpace=wrap;" parent="WIyWlLk6GJQsqaUBKTNV-1" vertex="1">
          <mxGeometry x="565.95" y="615" width="127" height="70" as="geometry" />
        </mxCell>
        <mxCell id="KuOzcFhr2oJy05dGrwk8-71" style="edgeStyle=orthogonalEdgeStyle;rounded=0;orthogonalLoop=1;jettySize=auto;html=1;entryX=0;entryY=0.5;entryDx=0;entryDy=0;" parent="WIyWlLk6GJQsqaUBKTNV-1" source="KuOzcFhr2oJy05dGrwk8-68" target="KuOzcFhr2oJy05dGrwk8-70" edge="1">
          <mxGeometry relative="1" as="geometry" />
        </mxCell>
        <mxCell id="KuOzcFhr2oJy05dGrwk8-68" value="Ungelesene E-Mails werden angezeigt" style="strokeWidth=2;html=1;shape=mxgraph.flowchart.display;whiteSpace=wrap;" parent="WIyWlLk6GJQsqaUBKTNV-1" vertex="1">
          <mxGeometry x="745.95" y="620" width="170" height="60" as="geometry" />
        </mxCell>
        <mxCell id="KuOzcFhr2oJy05dGrwk8-69" style="edgeStyle=orthogonalEdgeStyle;rounded=0;orthogonalLoop=1;jettySize=auto;html=1;entryX=0;entryY=0.5;entryDx=0;entryDy=0;entryPerimeter=0;" parent="WIyWlLk6GJQsqaUBKTNV-1" source="KuOzcFhr2oJy05dGrwk8-65" target="KuOzcFhr2oJy05dGrwk8-68" edge="1">
          <mxGeometry relative="1" as="geometry" />
        </mxCell>
        <mxCell id="KuOzcFhr2oJy05dGrwk8-75" style="edgeStyle=orthogonalEdgeStyle;rounded=0;orthogonalLoop=1;jettySize=auto;html=1;entryX=0;entryY=0.5;entryDx=0;entryDy=0;" parent="WIyWlLk6GJQsqaUBKTNV-1" source="KuOzcFhr2oJy05dGrwk8-70" target="KuOzcFhr2oJy05dGrwk8-74" edge="1">
          <mxGeometry relative="1" as="geometry" />
        </mxCell>
        <mxCell id="KuOzcFhr2oJy05dGrwk8-70" value="Log File wird gespeichert" style="rounded=1;whiteSpace=wrap;html=1;absoluteArcSize=1;arcSize=14;strokeWidth=2;" parent="WIyWlLk6GJQsqaUBKTNV-1" vertex="1">
          <mxGeometry x="965.95" y="625.5" width="150" height="49" as="geometry" />
        </mxCell>
        <mxCell id="KuOzcFhr2oJy05dGrwk8-72" style="edgeStyle=orthogonalEdgeStyle;rounded=0;orthogonalLoop=1;jettySize=auto;html=1;entryX=0;entryY=0.5;entryDx=0;entryDy=0;entryPerimeter=0;" parent="WIyWlLk6GJQsqaUBKTNV-1" source="KuOzcFhr2oJy05dGrwk8-15" target="KuOzcFhr2oJy05dGrwk8-65" edge="1">
          <mxGeometry relative="1" as="geometry" />
        </mxCell>
        <mxCell id="KuOzcFhr2oJy05dGrwk8-74" value="15s warten" style="rounded=1;whiteSpace=wrap;html=1;absoluteArcSize=1;arcSize=14;strokeWidth=2;" parent="WIyWlLk6GJQsqaUBKTNV-1" vertex="1">
          <mxGeometry x="1165.95" y="625.5" width="110" height="49" as="geometry" />
        </mxCell>
        <mxCell id="KuOzcFhr2oJy05dGrwk8-76" style="edgeStyle=orthogonalEdgeStyle;rounded=0;orthogonalLoop=1;jettySize=auto;html=1;entryX=0.5;entryY=0;entryDx=0;entryDy=0;entryPerimeter=0;" parent="WIyWlLk6GJQsqaUBKTNV-1" source="KuOzcFhr2oJy05dGrwk8-74" target="KuOzcFhr2oJy05dGrwk8-65" edge="1">
          <mxGeometry relative="1" as="geometry">
            <Array as="points">
              <mxPoint x="1315.95" y="650" />
              <mxPoint x="1315.95" y="595" />
              <mxPoint x="629.95" y="595" />
            </Array>
          </mxGeometry>
        </mxCell>
        <mxCell id="_T_kQsFNsvTssqX9CRax-14" style="edgeStyle=orthogonalEdgeStyle;rounded=0;orthogonalLoop=1;jettySize=auto;html=1;entryX=0;entryY=0.5;entryDx=0;entryDy=0;" parent="WIyWlLk6GJQsqaUBKTNV-1" source="_T_kQsFNsvTssqX9CRax-0" target="_T_kQsFNsvTssqX9CRax-2" edge="1">
          <mxGeometry relative="1" as="geometry" />
        </mxCell>
        <mxCell id="_T_kQsFNsvTssqX9CRax-0" value="Registrieren oder Login" style="rounded=1;whiteSpace=wrap;html=1;fontSize=12;glass=0;strokeWidth=1;shadow=0;" parent="WIyWlLk6GJQsqaUBKTNV-1" vertex="1">
          <mxGeometry x="363" y="60" width="120" height="40" as="geometry" />
        </mxCell>
        <mxCell id="_T_kQsFNsvTssqX9CRax-1" value="Login" style="rhombus;whiteSpace=wrap;html=1;shadow=0;fontFamily=Helvetica;fontSize=12;align=center;strokeWidth=1;spacing=6;spacingTop=-4;" parent="WIyWlLk6GJQsqaUBKTNV-1" vertex="1">
          <mxGeometry x="580" y="150" width="150" height="60" as="geometry" />
        </mxCell>
        <mxCell id="_T_kQsFNsvTssqX9CRax-13" style="edgeStyle=orthogonalEdgeStyle;rounded=0;orthogonalLoop=1;jettySize=auto;html=1;entryX=0.5;entryY=0;entryDx=0;entryDy=0;" parent="WIyWlLk6GJQsqaUBKTNV-1" source="_T_kQsFNsvTssqX9CRax-2" target="_T_kQsFNsvTssqX9CRax-1" edge="1">
          <mxGeometry relative="1" as="geometry" />
        </mxCell>
        <mxCell id="_T_kQsFNsvTssqX9CRax-19" style="edgeStyle=orthogonalEdgeStyle;rounded=0;orthogonalLoop=1;jettySize=auto;html=1;entryX=0;entryY=0.5;entryDx=0;entryDy=0;" parent="WIyWlLk6GJQsqaUBKTNV-1" source="_T_kQsFNsvTssqX9CRax-2" target="agXXEuxnET7PWjICIn9Y-13" edge="1">
          <mxGeometry relative="1" as="geometry" />
        </mxCell>
        <mxCell id="_T_kQsFNsvTssqX9CRax-2" value="Registieren" style="rhombus;whiteSpace=wrap;html=1;shadow=0;fontFamily=Helvetica;fontSize=12;align=center;strokeWidth=1;spacing=6;spacingTop=-4;" parent="WIyWlLk6GJQsqaUBKTNV-1" vertex="1">
          <mxGeometry x="580" y="50" width="150" height="60" as="geometry" />
        </mxCell>
        <mxCell id="_T_kQsFNsvTssqX9CRax-3" value="" style="html=1;strokeWidth=2;shape=manualInput;whiteSpace=wrap;rounded=1;size=26;arcSize=11;" parent="WIyWlLk6GJQsqaUBKTNV-1" vertex="1">
          <mxGeometry x="582" y="240" width="146" height="60" as="geometry" />
        </mxCell>
        <mxCell id="_T_kQsFNsvTssqX9CRax-4" value="E-Mail Adresse eingeben" style="text;html=1;align=center;verticalAlign=middle;whiteSpace=wrap;rounded=0;" parent="WIyWlLk6GJQsqaUBKTNV-1" vertex="1">
          <mxGeometry x="592" y="264" width="126" height="30" as="geometry" />
        </mxCell>
        <mxCell id="_T_kQsFNsvTssqX9CRax-9" style="edgeStyle=orthogonalEdgeStyle;rounded=0;orthogonalLoop=1;jettySize=auto;html=1;entryX=0.5;entryY=0;entryDx=0;entryDy=0;" parent="WIyWlLk6GJQsqaUBKTNV-1" source="_T_kQsFNsvTssqX9CRax-5" target="_T_kQsFNsvTssqX9CRax-7" edge="1">
          <mxGeometry relative="1" as="geometry" />
        </mxCell>
        <mxCell id="_T_kQsFNsvTssqX9CRax-5" value="" style="html=1;strokeWidth=2;shape=manualInput;whiteSpace=wrap;rounded=1;size=26;arcSize=11;" parent="WIyWlLk6GJQsqaUBKTNV-1" vertex="1">
          <mxGeometry x="582" y="330" width="146" height="60" as="geometry" />
        </mxCell>
        <mxCell id="_T_kQsFNsvTssqX9CRax-6" value="Passwort eingeben" style="text;html=1;align=center;verticalAlign=middle;whiteSpace=wrap;rounded=0;" parent="WIyWlLk6GJQsqaUBKTNV-1" vertex="1">
          <mxGeometry x="592" y="354" width="126" height="30" as="geometry" />
        </mxCell>
        <mxCell id="_T_kQsFNsvTssqX9CRax-8" style="edgeStyle=orthogonalEdgeStyle;rounded=0;orthogonalLoop=1;jettySize=auto;html=1;entryX=1;entryY=0.5;entryDx=0;entryDy=0;" parent="WIyWlLk6GJQsqaUBKTNV-1" source="_T_kQsFNsvTssqX9CRax-7" target="KuOzcFhr2oJy05dGrwk8-8" edge="1">
          <mxGeometry relative="1" as="geometry" />
        </mxCell>
        <mxCell id="_T_kQsFNsvTssqX9CRax-7" value="Tool fÃ¼hrt Authentifizierung durch" style="rounded=1;whiteSpace=wrap;html=1;absoluteArcSize=1;arcSize=14;strokeWidth=2;" parent="WIyWlLk6GJQsqaUBKTNV-1" vertex="1">
          <mxGeometry x="590" y="420" width="130" height="65" as="geometry" />
        </mxCell>
        <mxCell id="_T_kQsFNsvTssqX9CRax-11" style="edgeStyle=orthogonalEdgeStyle;rounded=0;orthogonalLoop=1;jettySize=auto;html=1;entryX=0.502;entryY=0.168;entryDx=0;entryDy=0;entryPerimeter=0;" parent="WIyWlLk6GJQsqaUBKTNV-1" source="_T_kQsFNsvTssqX9CRax-3" target="_T_kQsFNsvTssqX9CRax-5" edge="1">
          <mxGeometry relative="1" as="geometry" />
        </mxCell>
        <mxCell id="_T_kQsFNsvTssqX9CRax-12" style="edgeStyle=orthogonalEdgeStyle;rounded=0;orthogonalLoop=1;jettySize=auto;html=1;entryX=0.501;entryY=0.178;entryDx=0;entryDy=0;entryPerimeter=0;" parent="WIyWlLk6GJQsqaUBKTNV-1" source="_T_kQsFNsvTssqX9CRax-1" target="_T_kQsFNsvTssqX9CRax-3" edge="1">
          <mxGeometry relative="1" as="geometry" />
        </mxCell>
        <mxCell id="_T_kQsFNsvTssqX9CRax-18" style="edgeStyle=orthogonalEdgeStyle;rounded=0;orthogonalLoop=1;jettySize=auto;html=1;entryX=0;entryY=0.5;entryDx=0;entryDy=0;" parent="WIyWlLk6GJQsqaUBKTNV-1" source="_T_kQsFNsvTssqX9CRax-15" target="agXXEuxnET7PWjICIn9Y-41" edge="1">
          <mxGeometry relative="1" as="geometry" />
        </mxCell>
        <mxCell id="_T_kQsFNsvTssqX9CRax-15" value="" style="html=1;strokeWidth=2;shape=manualInput;whiteSpace=wrap;rounded=1;size=26;arcSize=11;" parent="WIyWlLk6GJQsqaUBKTNV-1" vertex="1">
          <mxGeometry x="1220" y="50" width="146" height="60" as="geometry" />
        </mxCell>
        <mxCell id="_T_kQsFNsvTssqX9CRax-16" value="Passwort eingeben" style="text;html=1;align=center;verticalAlign=middle;whiteSpace=wrap;rounded=0;" parent="WIyWlLk6GJQsqaUBKTNV-1" vertex="1">
          <mxGeometry x="1230" y="74" width="126" height="30" as="geometry" />
        </mxCell>
        <mxCell id="_T_kQsFNsvTssqX9CRax-21" value="Exit" style="rhombus;whiteSpace=wrap;html=1;shadow=0;fontFamily=Helvetica;fontSize=12;align=center;strokeWidth=1;spacing=6;spacingTop=-4;" parent="WIyWlLk6GJQsqaUBKTNV-1" vertex="1">
          <mxGeometry x="338" y="830" width="170" height="80" as="geometry" />
        </mxCell>
        <mxCell id="_T_kQsFNsvTssqX9CRax-22" value="Settings File wird gelÃ¶scht" style="rounded=1;whiteSpace=wrap;html=1;absoluteArcSize=1;arcSize=14;strokeWidth=2;" parent="WIyWlLk6GJQsqaUBKTNV-1" vertex="1">
          <mxGeometry x="564.45" y="727.5" width="130" height="65" as="geometry" />
        </mxCell>
        <mxCell id="_T_kQsFNsvTssqX9CRax-25" style="edgeStyle=orthogonalEdgeStyle;rounded=0;orthogonalLoop=1;jettySize=auto;html=1;entryX=0;entryY=0.5;entryDx=0;entryDy=0;entryPerimeter=0;" parent="WIyWlLk6GJQsqaUBKTNV-1" source="_T_kQsFNsvTssqX9CRax-22" target="agXXEuxnET7PWjICIn9Y-27" edge="1">
          <mxGeometry relative="1" as="geometry" />
        </mxCell>
        <mxCell id="_T_kQsFNsvTssqX9CRax-27" style="edgeStyle=orthogonalEdgeStyle;rounded=0;orthogonalLoop=1;jettySize=auto;html=1;entryX=0;entryY=0.5;entryDx=0;entryDy=0;entryPerimeter=0;" parent="WIyWlLk6GJQsqaUBKTNV-1" source="_T_kQsFNsvTssqX9CRax-21" target="agXXEuxnET7PWjICIn9Y-27" edge="1">
          <mxGeometry relative="1" as="geometry" />
        </mxCell>
        <mxCell id="tz2j4-wTW594FyGTN8xT-3" style="edgeStyle=orthogonalEdgeStyle;rounded=0;orthogonalLoop=1;jettySize=auto;html=1;entryX=0.5;entryY=0;entryDx=0;entryDy=0;" parent="WIyWlLk6GJQsqaUBKTNV-1" source="tz2j4-wTW594FyGTN8xT-0" target="tz2j4-wTW594FyGTN8xT-1" edge="1">
          <mxGeometry relative="1" as="geometry" />
        </mxCell>
        <mxCell id="tz2j4-wTW594FyGTN8xT-0" value="ZurÃ¼ck" style="rhombus;whiteSpace=wrap;html=1;shadow=0;fontFamily=Helvetica;fontSize=12;align=center;strokeWidth=1;spacing=6;spacingTop=-4;" parent="WIyWlLk6GJQsqaUBKTNV-1" vertex="1">
          <mxGeometry x="-320" y="1050" width="170" height="80" as="geometry" />
        </mxCell>
        <mxCell id="tz2j4-wTW594FyGTN8xT-1" value="Exit" style="rhombus;whiteSpace=wrap;html=1;shadow=0;fontFamily=Helvetica;fontSize=12;align=center;strokeWidth=1;spacing=6;spacingTop=-4;" parent="WIyWlLk6GJQsqaUBKTNV-1" vertex="1">
          <mxGeometry x="-320" y="1160" width="170" height="80" as="geometry" />
        </mxCell>
        <mxCell id="tz2j4-wTW594FyGTN8xT-4" style="edgeStyle=orthogonalEdgeStyle;rounded=0;orthogonalLoop=1;jettySize=auto;html=1;entryX=0;entryY=0.5;entryDx=0;entryDy=0;entryPerimeter=0;" parent="WIyWlLk6GJQsqaUBKTNV-1" source="tz2j4-wTW594FyGTN8xT-0" target="agXXEuxnET7PWjICIn9Y-0" edge="1">
          <mxGeometry relative="1" as="geometry">
            <Array as="points">
              <mxPoint x="-380" y="1090" />
              <mxPoint x="-380" y="100" />
            </Array>
          </mxGeometry>
        </mxCell>
        <mxCell id="tz2j4-wTW594FyGTN8xT-6" style="edgeStyle=orthogonalEdgeStyle;rounded=0;orthogonalLoop=1;jettySize=auto;html=1;entryX=0;entryY=0.5;entryDx=0;entryDy=0;entryPerimeter=0;" parent="WIyWlLk6GJQsqaUBKTNV-1" source="tz2j4-wTW594FyGTN8xT-1" target="agXXEuxnET7PWjICIn9Y-27" edge="1">
          <mxGeometry relative="1" as="geometry">
            <Array as="points">
              <mxPoint x="1040" y="1200" />
              <mxPoint x="1040" y="870" />
            </Array>
          </mxGeometry>
        </mxCell>
        <mxCell id="tz2j4-wTW594FyGTN8xT-12" style="edgeStyle=orthogonalEdgeStyle;rounded=0;orthogonalLoop=1;jettySize=auto;html=1;entryX=0;entryY=0.5;entryDx=0;entryDy=0;" parent="WIyWlLk6GJQsqaUBKTNV-1" source="tz2j4-wTW594FyGTN8xT-7" target="tz2j4-wTW594FyGTN8xT-10" edge="1">
          <mxGeometry relative="1" as="geometry" />
        </mxCell>
        <mxCell id="tz2j4-wTW594FyGTN8xT-7" value="" style="html=1;strokeWidth=2;shape=manualInput;whiteSpace=wrap;rounded=1;size=26;arcSize=11;" parent="WIyWlLk6GJQsqaUBKTNV-1" vertex="1">
          <mxGeometry x="-110" y="950" width="146" height="60" as="geometry" />
        </mxCell>
        <mxCell id="tz2j4-wTW594FyGTN8xT-8" value="Altes Passwort eingeben" style="text;html=1;align=center;verticalAlign=middle;whiteSpace=wrap;rounded=0;" parent="WIyWlLk6GJQsqaUBKTNV-1" vertex="1">
          <mxGeometry x="-100" y="974" width="126" height="30" as="geometry" />
        </mxCell>
        <mxCell id="tz2j4-wTW594FyGTN8xT-13" style="edgeStyle=orthogonalEdgeStyle;rounded=0;orthogonalLoop=1;jettySize=auto;html=1;entryX=1;entryY=0.5;entryDx=0;entryDy=0;exitX=1;exitY=0.5;exitDx=0;exitDy=0;" parent="WIyWlLk6GJQsqaUBKTNV-1" source="tz2j4-wTW594FyGTN8xT-10" target="KuOzcFhr2oJy05dGrwk8-21" edge="1">
          <mxGeometry relative="1" as="geometry">
            <Array as="points">
              <mxPoint x="290" y="980" />
              <mxPoint x="290" y="430" />
            </Array>
          </mxGeometry>
        </mxCell>
        <mxCell id="tz2j4-wTW594FyGTN8xT-10" value="" style="html=1;strokeWidth=2;shape=manualInput;whiteSpace=wrap;rounded=1;size=26;arcSize=11;" parent="WIyWlLk6GJQsqaUBKTNV-1" vertex="1">
          <mxGeometry x="78" y="950" width="146" height="60" as="geometry" />
        </mxCell>
        <mxCell id="tz2j4-wTW594FyGTN8xT-11" value="Neues Passwort eingeben" style="text;html=1;align=center;verticalAlign=middle;whiteSpace=wrap;rounded=0;" parent="WIyWlLk6GJQsqaUBKTNV-1" vertex="1">
          <mxGeometry x="88" y="974" width="126" height="30" as="geometry" />
        </mxCell>
        <mxCell id="tz2j4-wTW594FyGTN8xT-15" style="edgeStyle=orthogonalEdgeStyle;rounded=0;orthogonalLoop=1;jettySize=auto;html=1;entryX=0;entryY=0.5;entryDx=0;entryDy=0;entryPerimeter=0;" parent="WIyWlLk6GJQsqaUBKTNV-1" edge="1">
          <mxGeometry relative="1" as="geometry">
            <mxPoint x="-10" y="1090" as="sourcePoint" />
          </mxGeometry>
        </mxCell>
        <mxCell id="tz2j4-wTW594FyGTN8xT-21" style="edgeStyle=orthogonalEdgeStyle;rounded=0;orthogonalLoop=1;jettySize=auto;html=1;entryX=0;entryY=0.5;entryDx=0;entryDy=0;" parent="WIyWlLk6GJQsqaUBKTNV-1" source="tz2j4-wTW594FyGTN8xT-18" target="KuOzcFhr2oJy05dGrwk8-41" edge="1">
          <mxGeometry relative="1" as="geometry" />
        </mxCell>
        <mxCell id="tz2j4-wTW594FyGTN8xT-18" value="" style="html=1;strokeWidth=2;shape=manualInput;whiteSpace=wrap;rounded=1;size=26;arcSize=11;" parent="WIyWlLk6GJQsqaUBKTNV-1" vertex="1">
          <mxGeometry x="-110" y="510" width="146" height="60" as="geometry" />
        </mxCell>
        <mxCell id="tz2j4-wTW594FyGTN8xT-19" value="Passwort eingeben" style="text;html=1;align=center;verticalAlign=middle;whiteSpace=wrap;rounded=0;" parent="WIyWlLk6GJQsqaUBKTNV-1" vertex="1">
          <mxGeometry x="-100" y="534" width="126" height="30" as="geometry" />
        </mxCell>
        <mxCell id="tz2j4-wTW594FyGTN8xT-31" style="edgeStyle=orthogonalEdgeStyle;rounded=0;orthogonalLoop=1;jettySize=auto;html=1;entryX=1;entryY=0.5;entryDx=0;entryDy=0;" parent="WIyWlLk6GJQsqaUBKTNV-1" source="tz2j4-wTW594FyGTN8xT-25" target="KuOzcFhr2oJy05dGrwk8-21" edge="1">
          <mxGeometry relative="1" as="geometry">
            <Array as="points">
              <mxPoint x="290" y="760" />
              <mxPoint x="290" y="430" />
            </Array>
          </mxGeometry>
        </mxCell>
        <mxCell id="tz2j4-wTW594FyGTN8xT-25" value="" style="html=1;strokeWidth=2;shape=manualInput;whiteSpace=wrap;rounded=1;size=26;arcSize=11;" parent="WIyWlLk6GJQsqaUBKTNV-1" vertex="1">
          <mxGeometry x="72" y="730" width="146" height="60" as="geometry" />
        </mxCell>
        <mxCell id="tz2j4-wTW594FyGTN8xT-26" value="Neuer Gmail App Code eingeben" style="text;html=1;align=center;verticalAlign=middle;whiteSpace=wrap;rounded=0;" parent="WIyWlLk6GJQsqaUBKTNV-1" vertex="1">
          <mxGeometry x="82" y="754" width="126" height="30" as="geometry" />
        </mxCell>
        <mxCell id="tz2j4-wTW594FyGTN8xT-27" style="edgeStyle=orthogonalEdgeStyle;rounded=0;orthogonalLoop=1;jettySize=auto;html=1;entryX=0;entryY=0.5;entryDx=0;entryDy=0;" parent="WIyWlLk6GJQsqaUBKTNV-1" source="tz2j4-wTW594FyGTN8xT-28" target="tz2j4-wTW594FyGTN8xT-25" edge="1">
          <mxGeometry relative="1" as="geometry" />
        </mxCell>
        <mxCell id="tz2j4-wTW594FyGTN8xT-28" value="" style="html=1;strokeWidth=2;shape=manualInput;whiteSpace=wrap;rounded=1;size=26;arcSize=11;" parent="WIyWlLk6GJQsqaUBKTNV-1" vertex="1">
          <mxGeometry x="-110" y="730" width="146" height="60" as="geometry" />
        </mxCell>
        <mxCell id="tz2j4-wTW594FyGTN8xT-29" value="Passwort eingeben" style="text;html=1;align=center;verticalAlign=middle;whiteSpace=wrap;rounded=0;" parent="WIyWlLk6GJQsqaUBKTNV-1" vertex="1">
          <mxGeometry x="-100" y="754" width="126" height="30" as="geometry" />
        </mxCell>
      </root>
    </mxGraphModel>
  </diagram>
</mxfile>
